<?xml version="1.0" encoding="UTF-8" standalone="no"?>
<svg
   xmlns:dc="http://purl.org/dc/elements/1.1/"
   xmlns:cc="http://creativecommons.org/ns#"
   xmlns:rdf="http://www.w3.org/1999/02/22-rdf-syntax-ns#"
   xmlns:svg="http://www.w3.org/2000/svg"
   xmlns="http://www.w3.org/2000/svg"
   xmlns:sodipodi="http://sodipodi.sourceforge.net/DTD/sodipodi-0.dtd"
   xmlns:inkscape="http://www.inkscape.org/namespaces/inkscape"
   width="100"
   height="13"
   viewBox="0 0 26.458333 3.4395833"
   version="1.1"
   id="svg8"
   inkscape:version="1.0.2-2 (e86c870879, 2021-01-15)"
   sodipodi:docname="UEFA Women's Champions League logo.svg">
  <title
     id="title77">Bancolombia logo</title>
  <defs
     id="defs2">
    <clipPath
       id="clipPath18"
       clipPathUnits="userSpaceOnUse">
      <path
         id="path16"
         d="M 0,858.897 H 612.288 V 0 H 0 Z" />
    </clipPath>
    <clipPath
       id="clipPath18-8"
       clipPathUnits="userSpaceOnUse">
      <path
         id="path16-4"
         d="M 0,858.897 H 612.288 V 0 H 0 Z" />
    </clipPath>
  </defs>
  <sodipodi:namedview
     id="base"
     pagecolor="#ffffff"
     bordercolor="#666666"
     borderopacity="1.0"
     inkscape:pageopacity="0.0"
     inkscape:pageshadow="2"
     inkscape:zoom="7.9195959"
     inkscape:cx="53.118334"
     inkscape:cy="-1.6810012"
     inkscape:document-units="mm"
     inkscape:current-layer="layer1"
     inkscape:document-rotation="0"
     showgrid="false"
     units="px"
     inkscape:showpageshadow="false"
     inkscape:window-width="1366"
     inkscape:window-height="745"
     inkscape:window-x="-8"
     inkscape:window-y="-8"
     inkscape:window-maximized="1" />
  <metadata
     id="metadata5">
    <rdf:RDF>
      <cc:Work
         rdf:about="">
        <dc:format>image/svg+xml</dc:format>
        <dc:type
           rdf:resource="http://purl.org/dc/dcmitype/StillImage" />
        <dc:title>Bancolombia logo</dc:title>
        <cc:license
           rdf:resource="http://scripts.sil.org/OFL" />
        <dc:date>19 de abril de 2021</dc:date>
      </cc:Work>
      <cc:License
         rdf:about="http://scripts.sil.org/OFL">
        <cc:permits
           rdf:resource="http://scripts.sil.org/pub/OFL/Reproduction" />
        <cc:permits
           rdf:resource="http://scripts.sil.org/pub/OFL/Distribution" />
        <cc:permits
           rdf:resource="http://scripts.sil.org/pub/OFL/Embedding" />
        <cc:permits
           rdf:resource="http://scripts.sil.org/pub/OFL/DerivativeWorks" />
        <cc:requires
           rdf:resource="http://scripts.sil.org/pub/OFL/Notice" />
        <cc:requires
           rdf:resource="http://scripts.sil.org/pub/OFL/Attribution" />
        <cc:requires
           rdf:resource="http://scripts.sil.org/pub/OFL/ShareAlike" />
        <cc:requires
           rdf:resource="http://scripts.sil.org/pub/OFL/DerivativeRenaming" />
        <cc:requires
           rdf:resource="http://scripts.sil.org/pub/OFL/BundlingWhenSelling" />
      </cc:License>
    </rdf:RDF>
  </metadata>
  <g
     inkscape:label="Capa 1"
     inkscape:groupmode="layer"
     id="layer1">
    <path
       id="path2"
       style="fill:#000000;stroke-width:0.130661"
       d="m 23.923978,0.00646192 c -0.165549,0 -0.303431,0.13902311 -0.303431,0.30598203 0,0.17095713 0.137882,0.30623707 0.303431,0.30623707 0.169467,0 0.307257,-0.14322421 0.307257,-0.30623707 0,-0.17093095 -0.13779,-0.30598203 -0.307257,-0.30598203 z M 2.421789,0.15064868 C 1.7953994,0.22790862 1.1903456,0.34211253 0.58385566,0.51787802 0.50488374,0.54269043 0.45624909,0.63105627 0.47616204,0.70953134 0.52048414,0.8842907 0.54283454,0.9719133 0.58793875,1.1471955 c 0.0190765,0.07411 0.0936084,0.1121484 0.16919571,0.087023 C 1.3767955,1.0434524 1.9980165,0.912968 2.6389619,0.8179903 2.7124197,0.8081644 2.7524818,0.7321676 2.7254738,0.65593996 2.6685714,0.49531811 2.6399549,0.41522886 2.5817977,0.25553477 2.5571008,0.1877347 2.4901508,0.14322703 2.421789,0.15064868 Z m 12.777491,0.0186295 c -0.157577,0 -0.456887,0.0875217 -0.594867,0.19088763 V 2.9123975 h 0.594867 z m 6.707104,0 c -0.153657,0 -0.457143,0.0875217 -0.595121,0.19088763 V 2.7973035 c 0.197037,0.091423 0.524144,0.1549049 0.863079,0.1549049 0.693549,0 1.119041,-0.4174131 1.119041,-1.1409887 0,-0.5168434 -0.240414,-0.9263675 -0.827606,-0.9263675 -0.185147,0 -0.389925,0.079543 -0.559393,0.2266156 z M 4.9732552,0.26472187 c -0.2876506,0 -0.5317744,0.0319171 -0.8549123,0.0796211 V 2.9123972 h 0.9692405 c 0.5280545,0 0.9929737,-0.3098944 0.9929737,-0.7750352 0,-0.3538305 -0.1535685,-0.5726396 -0.5121816,-0.6760185 0.2325116,-0.091436 0.3626364,-0.2584126 0.3626364,-0.508864 0,-0.43734917 -0.4257959,-0.68775763 -0.9577567,-0.68775763 z m 0,0.50095303 c 0.2482562,0 0.3626356,0.1151656 0.3626356,0.2781653 0,0.1709442 -0.1103952,0.2705097 -0.3468139,0.2705097 H 4.7211196 V 0.7855803 c 0.082786,-0.011929 0.1693746,-0.019905 0.2521356,-0.0199054 z m 6.6047708,0.1153494 c -0.6226,0 -1.103475,0.3658512 -1.103475,1.0616221 0,0.6440289 0.398179,1.0098172 1.004969,1.0098172 0.177307,0 0.40183,-0.039879 0.618597,-0.1273436 L 11.991701,2.3481555 c -0.145686,0.051703 -0.264026,0.071455 -0.366464,0.071455 -0.374344,0 -0.524176,-0.1949048 -0.524176,-0.5129472 0,-0.3140966 0.161655,-0.5206032 0.559649,-0.5206032 0.06311,0 0.173366,0.015855 0.240395,0.035727 0.09055,-0.099394 0.173363,-0.2743486 0.197012,-0.4731365 -0.189196,-0.043732 -0.346703,-0.067627 -0.520091,-0.0676263 z m 1.662868,0 c -0.60287,0 -1.028448,0.3976686 -1.028448,1.0338057 0,0.6281536 0.401928,1.0376336 1.028448,1.0376336 0.6226,0 1.028445,-0.3975768 1.028445,-1.0376336 0,-0.6202358 -0.401925,-1.0338057 -1.028445,-1.0338057 z m 3.321908,0 c -0.602871,0 -1.028448,0.3976686 -1.028448,1.0338057 0,0.6281536 0.401927,1.0376336 1.028448,1.0376336 0.6226,0 1.028445,-0.3975768 1.028445,-1.0376336 0,-0.6202358 -0.401924,-1.0338057 -1.028445,-1.0338057 z m -7.1799874,0.00382 c -0.3270711,0 -0.728882,0.09153 -0.9771512,0.2585152 l -0.00382,1.7692852 H 8.9967172 V 1.4217884 c 0.074894,-0.019886 0.1615222,-0.031899 0.2521356,-0.031899 0.2403769,0 0.3784579,0.1072851 0.3784579,0.3179763 V 2.9126539 H 10.21835 v -1.415327 c 0,-0.3856596 -0.3823456,-0.6124743 -0.8355181,-0.6124743 z m 9.4262354,0 c -0.311365,0 -0.681704,0.09153 -0.918201,0.2585152 l -0.0038,1.7692852 h 0.594867 V 1.4217884 c 0.07486,-0.019886 0.161455,-0.031899 0.252133,-0.031899 0.236367,0 0.370548,0.1072851 0.370548,0.3179763 v 1.2047881 h 0.58721 V 1.7356815 c 0,-0.103366 -0.01584,-0.1986119 -0.04747,-0.2860765 0.08676,-0.035788 0.193023,-0.059716 0.303431,-0.059716 0.236366,0 0.370291,0.1072852 0.370291,0.3179763 v 1.204788 h 0.58721 V 1.4973265 c 0,-0.3816745 -0.334703,-0.6124743 -0.764317,-0.6124743 -0.236367,0 -0.516273,0.087468 -0.71736,0.2187043 C 19.269884,0.9683744 19.057281,0.8848522 18.809025,0.8848522 Z m 5.118754,0 c -0.114328,0 -0.216637,0.020114 -0.299346,0.055888 V 2.9126445 H 24.22358 V 0.9407355 C 24.14074,0.9049605 24.042003,0.8848475 23.927804,0.8848475 Z M 7.1498359,0.8889303 c -0.2600815,0 -0.5003432,0.063711 -0.7446671,0.1551601 l 0.047215,0.1429108 c 0.06306,0.1749171 0.1378862,0.2347828 0.2324856,0.2347828 0.039384,0 0.3428088,-0.051805 0.4570591,-0.051805 0.21674,0 0.3153384,0.06356 0.3271629,0.3100652 -0.6501961,0.019873 -1.197898,0.1590485 -1.197898,0.7275684 0,0.3777024 0.3429093,0.548675 0.7566616,0.548675 0.4649702,0 0.807766,-0.087591 1.0205349,-0.2506041 V 1.660143 c 0,-0.5565905 -0.3311151,-0.7712073 -0.8985502,-0.7712076 z m 18.2479071,0 c -0.260146,0 -0.500329,0.063711 -0.744666,0.1551601 l 0.04721,0.1429108 c 0.06298,0.1749161 0.137886,0.2347817 0.232485,0.2347817 0.03946,0 0.342731,-0.051805 0.457059,-0.051805 0.216637,0 0.315273,0.06356 0.327162,0.3100651 -0.65017,0.019873 -1.198152,0.1590485 -1.198152,0.7275683 0,0.3777024 0.342858,0.5486751 0.756662,0.5486751 0.465023,0 0.807818,-0.087591 1.020535,-0.2506043 V 1.660143 c 0,-0.5565905 -0.330835,-0.7712073 -0.898297,-0.7712076 z M 2.9457096,1.1234633 c -0.980599,0.1250558 -1.9356463,0.3675838 -2.84111532,0.7684 -0.0660495,0.031242 -0.10546595825,0.1143347 -0.0916157,0.1875703 0.0354873,0.187342 0.0533415,0.2811164 0.0895742,0.4687981 0.0154717,0.080265 0.0904454,0.1172023 0.16434721,0.081153 C 1.186624,2.2079631 2.1584195,1.939813 3.155482,1.7798316 3.2188528,1.7694442 3.2511881,1.696707 3.2269374,1.6218643 3.1767114,1.466664 3.1513488,1.3891832 3.0995938,1.2347285 3.0755523,1.1629564 3.0102562,1.1150086 2.9457096,1.1234623 Z M 22.213642,1.3898895 c 0.303526,0 0.492531,0.1310969 0.492531,0.4968699 0,0.3180424 -0.149583,0.5884858 -0.496358,0.5884858 -0.09447,0 -0.197073,-0.00811 -0.303431,-0.023989 V 1.4534329 c 0.08676,-0.03976 0.18522,-0.063544 0.307258,-0.063543 z m -8.972748,0.00791 c 0.275825,0 0.433324,0.1910046 0.433324,0.5170304 0,0.3418882 -0.157499,0.5206032 -0.433324,0.5206032 -0.271906,0 -0.433327,-0.178715 -0.433327,-0.5206032 0,-0.3260258 0.165341,-0.5170304 0.433327,-0.5170304 z m 3.321908,0 c 0.275825,0 0.433325,0.1910046 0.433325,0.5170304 0,0.3418882 -0.1575,0.5206032 -0.433325,0.5206032 -0.271905,0 -0.433582,-0.178715 -0.433582,-0.5206032 0,-0.3260258 0.165595,-0.5170304 0.433582,-0.5170304 z M 4.7211196,1.8112204 h 0.3151686 c 0.2640278,0 0.398109,0.087608 0.398109,0.2983261 0,0.1948158 -0.1457879,0.2980708 -0.4019363,0.2980708 H 4.7211196 Z m 2.6336398,0.2506042 h 0.1143282 v 0.3419647 c -0.059109,0.05165 -0.1852059,0.099272 -0.3389025,0.099272 -0.1930911,0 -0.2876073,-0.051589 -0.2876073,-0.1947159 0,-0.1868454 0.2442477,-0.2465207 0.5121816,-0.2465208 z m 18.2479076,0 h 0.114328 v 0.3419647 c -0.05906,0.05165 -0.185245,0.099272 -0.338903,0.099272 -0.193117,0 -0.287607,-0.051589 -0.287607,-0.1947159 0,-0.1868454 0.244196,-0.2465207 0.512182,-0.2465208 z M 2.9339706,2.1682419 C 2.3216925,2.3011505 1.7230956,2.4613064 1.1302337,2.6651117 1.055038,2.6927335 1.0127369,2.7720256 1.0324932,2.8450261 c 0.047132,0.173923 0.070707,0.2611637 0.1184119,0.4356224 0.022411,0.081964 0.1146148,0.1239024 0.1993093,0.091616 C 1.9428672,3.1599268 2.541227,2.9745264 3.1529301,2.8258863 3.2115975,2.8116313 3.240565,2.7427616 3.2187714,2.6717468 3.1706096,2.5151233 3.1463072,2.4369704 3.0967868,2.2810393 3.0724851,2.2044064 3.0014702,2.1543526 2.9339706,2.1682419 Z" />
  </g>
</svg>
